Coordinates
version=1
nRows=13
nColumns=40
inDegrees=yes

Units are S.I. units (second, meters, Newtons, ...)
Angles are in degrees.

endheader
time	pelvis_tilt	pelvis_list	pelvis_rotation	pelvis_tx	pelvis_ty	pelvis_tz	hip_flexion_r	hip_adduction_r	hip_rotation_r	knee_angle_r	knee_angle_r_beta	ankle_angle_r	subtalar_angle_r	mtp_angle_r	hip_flexion_l	hip_adduction_l	hip_rotation_l	knee_angle_l	knee_angle_l_beta	ankle_angle_l	subtalar_angle_l	mtp_angle_l	lumbar_extension	lumbar_bending	lumbar_rotation	arm_flex_r	arm_add_r	arm_rot_r	elbow_flex_r	pro_sup_r	wrist_flex_r	wrist_dev_r	arm_flex_l	arm_add_l	arm_rot_l	elbow_flex_l	pro_sup_l	wrist_flex_l	wrist_dev_l
     42.29500000	     -3.97498429	     -4.36671981	     -3.09640715	      0.87292410	      0.92774881	      0.46702478	     28.90389255	     -1.03343778	     -9.74595818	     26.51377618	     26.51377618	      1.98480383	    -10.28426942	      2.17271297	      3.30603562	     -5.29977618	     -8.27033773	     16.28804881	     16.28804881	     17.69409614	     -9.87718111	     -0.53940708	    -10.70327693	      7.07958326	      1.18627551	     -7.61352063	    -11.40529418	    -19.16841381	     22.29925558	     47.53092865	      0.00000000	      0.00000000	     20.55765894	    -16.59577755	    -12.65572265	     77.21030618	     47.74797389	      0.00000000	      0.00000000
     42.30807143	     -4.22633359	     -4.27539537	     -3.05696268	      0.87322938	      0.92606669	      0.46858214	     28.17390318	     -0.79674343	     -9.95223392	     23.48031723	     23.48031723	      2.00816139	     -8.36341161	      2.69418526	      2.99869596	     -5.28429127	     -8.28858836	     16.11292792	     16.11292792	     18.04333725	     -9.73334587	     -0.75222336	    -10.52009939	      7.03569138	      1.26555292	     -6.72463769	    -11.22467607	    -19.14442424	     22.68194633	     47.51566819	      0.00000000	      0.00000000	     20.40054228	    -16.33559417	    -12.33602030	     77.17124697	     47.72812651	      0.00000000	      0.00000000
     42.32114286	     -4.29834782	     -4.22986687	     -3.00369575	      0.87382540	      0.92458832	      0.47025104	     27.37212182	     -0.61045798	    -10.42774846	     21.19749815	     21.19749815	      2.14150403	     -6.37910605	      3.08583909	      2.45048012	     -5.32160005	     -8.34771162	     15.90105221	     15.90105221	     18.45176890	     -9.50405866	     -0.93872234	    -10.55262018	      7.04459345	      1.27564188	     -5.68658371	    -11.15855521	    -19.12230810	     23.16131471	     47.49630488	      0.00000000	      0.00000000	     20.09130044	    -16.09039851	    -11.91612210	     76.99357586	     47.69957809	      0.00000000	      0.00000000
     42.33421429	     -4.47139172	     -4.12833120	     -2.93417210	      0.87447970	      0.92294054	      0.47204289	     26.89836434	     -0.49927230	    -10.77474092	     19.75544155	     19.75544155	      2.24803757	     -5.02483333	      3.25577935	      2.04945190	     -5.31219037	     -8.34941569	     15.75207550	     15.75207550	     18.86492513	     -9.31862516	     -1.03688388	    -10.44122320	      6.98945568	      1.31901624	     -4.62300582	    -11.04435180	    -19.07181496	     23.66893485	     47.47302682	      0.00000000	      0.00000000	     19.70736723	    -15.83421522	    -11.50915813	     76.72275942	     47.66935864	      0.00000000	      0.00000000
     42.34728571	     -4.66110173	     -4.00315313	     -2.87244165	      0.87513388	      0.92122157	      0.47395513	     26.75759306	     -0.43072614	    -10.87520347	     19.27471827	     19.27471827	      2.39797382	     -4.57838241	      3.18277930	      1.74602958	     -5.29272389	     -8.32504461	     15.74574238	     15.74574238	     19.24301849	     -9.30557051	     -1.11286356	    -10.31301670	      6.90829717	      1.46460829	     -3.47979178	    -10.95721073	    -19.00769738	     24.15610269	     47.45364689	      0.00000000	      0.00000000	     19.27675641	    -15.31705250	    -11.14954071	     76.46499013	     47.63916791	      0.00000000	      0.00000000
     42.36035714	     -4.77150335	     -4.03304783	     -2.71385486	      0.87605125	      0.91984531	      0.47593189	     26.39918723	     -0.30839811	    -11.41587001	     18.94841701	     18.94841701	      2.49380263	     -3.86110771	      2.52781093	      1.36342122	     -5.46184501	     -8.20336741	     15.78564961	     15.78564961	     19.75697483	     -9.14043924	     -0.90155886	    -10.26927165	      7.06615037	      1.27588728	     -2.22585996	    -10.89806772	    -18.88783848	     24.87074546	     47.41412114	      0.00000000	      0.00000000	     18.61821542	    -15.32538221	    -10.68617528	     75.66563868	     47.59558885	      0.00000000	      0.00000000
     42.37342857	     -4.89351132	     -4.00236047	     -2.59316728	      0.87690596	      0.91852555	      0.47800746	     26.33065924	     -0.23057314	    -11.52652244	     19.34668414	     19.34668414	      2.71090616	     -4.03425256	      2.05025892	      1.10534048	     -5.58081371	     -8.06001505	     16.00988622	     16.00988622	     20.10197366	     -9.19961393	     -0.85567426	    -10.21690802	      7.12914710	      1.48647720	     -1.05054426	    -10.88442568	    -18.78903517	     25.38235882	     47.39071211	      0.00000000	      0.00000000	     18.01731904	    -14.74133883	    -10.32045772	     75.25294493	     47.56119737	      0.00000000	      0.00000000
     42.38650000	     -5.05654485	     -3.90917059	     -2.40140518	      0.87780192	      0.91715549	      0.48011481	     26.28816092	     -0.22453506	    -11.53757540	     19.77337625	     19.77337625	      1.60512265	     -5.16413456	     -2.42448742	      1.23339490	     -5.70628045	     -7.87246339	     16.94331477	     16.94331477	     21.37869125	     -8.96305884	      1.22783532	    -10.06081437	      7.14542986	      1.55903454	     -0.06765210	    -10.97733871	    -17.61130703	     26.54623679	     47.19873968	      0.00000000	      0.00000000	     17.61646050	    -14.53494309	     -9.45952080	     73.58488545	     47.50173345	      0.00000000	      0.00000000
     42.39957143	     -5.09545391	     -3.87120243	     -2.19125564	      0.87864825	      0.91624404	      0.48223498	     26.30577558	     -0.23857992	    -11.55438584	     20.78012741	     20.78012741	      2.00859960	     -5.83349407	     -2.93414729	      1.30303775	     -5.88574248	     -7.59205078	     17.89986026	     17.89986026	     21.57143139	     -9.34143830	      1.08995750	    -10.10997420	      7.21665564	      1.51324433	      1.34046587	    -10.98846631	    -17.43715234	     27.24149502	     47.16026064	      0.00000000	      0.00000000	     16.80911165	    -14.13418556	     -9.16712487	     72.82342438	     47.46694347	      0.00000000	      0.00000000
     42.41264286	     -5.17134167	     -3.82921261	     -1.94709972	      0.87948045	      0.91550882	      0.48437831	     26.36385722	     -0.25830746	    -11.48931726	     21.82525998	     21.82525998	      2.39736858	     -6.65979976	     -3.45258953	      1.66127477	     -6.09544989	     -7.21959301	     19.29607361	     19.29607361	     21.65341455	     -9.95218744	      0.97442769	    -10.09198513	      7.29042583	      1.39795894	      2.81074451	    -11.01310652	    -17.18033171	     27.96319399	     47.11433913	      0.00000000	      0.00000000	     15.93915655	    -13.72288539	     -8.86768964	     71.73508968	     47.42579998	      0.00000000	      0.00000000
     42.42571429	     -5.19727932	     -3.78504813	     -1.68279010	      0.88026120	      0.91511276	      0.48651790	     26.32048504	     -0.27947011	    -11.40668721	     22.78808542	     22.78808542	      2.82774471	     -7.47283034	     -3.85264757	      2.21808868	     -6.32223919	     -6.77127487	     21.13255077	     21.13255077	     21.56898465	    -10.77240736	      0.80215954	    -10.14252806	      7.37577217	      1.31304561	      4.32135873	    -11.07056191	    -16.86192038	     28.67770283	     47.06512210	      0.00000000	      0.00000000	     15.07417996	    -13.27485556	     -8.57673803	     70.46116751	     47.38176667	      0.00000000	      0.00000000
     42.43878571	     -5.25013457	     -3.72787891	     -1.40921546	      0.88094699	      0.91494932	      0.48864899	     26.24252427	     -0.29599770	    -11.28549133	     23.59593296	     23.59593296	      3.26826181	     -8.24066467	     -4.07510535	      3.08425410	     -6.54727341	     -6.23236618	     23.44272201	     23.44272201	     21.24528213	    -11.85825700	      0.54565342	    -10.12947182	      7.44421164	      1.18609013	      5.88083222	    -11.15065473	    -16.39648229	     29.42043531	     47.00310516	      0.00000000	      0.00000000	     14.18545714	    -12.77274766	     -8.28829546	     68.83394517	     47.33244350	      0.00000000	      0.00000000
     42.45185714	     -5.25485391	     -3.67485901	     -1.15603371	      0.88155044	      0.91512256	      0.49081371	     26.04172477	     -0.29274487	    -11.19338046	     24.23373318	     24.23373318	      3.71841458	     -8.82765537	     -4.08624315	      4.14194861	     -6.77471452	     -5.64717384	     26.16687310	     26.16687310	     20.62328530	    -13.14844415	      0.19734303	    -10.17080464	      7.50049606	      1.10010141	      7.47161451	    -11.27093118	    -15.79974190	     30.18043261	     46.93100458	      0.00000000	      0.00000000	     13.33873083	    -12.23652288	     -8.02369133	     66.97611147	     47.28152595	      0.00000000	      0.00000000
